<?xml version="1.0" encoding="utf-8"?>
<!-- Generator: Adobe Illustrator 22.0.1, SVG Export Plug-In . SVG Version: 6.00 Build 0)  -->
<svg version="1.1"
	 id="NYC" inkscape:version="0.47 r22583" sodipodi:docname="New_York_City_location_Manhattan.svg" xmlns:cc="http://creativecommons.org/ns#" xmlns:dc="http://purl.org/dc/elements/1.1/" xmlns:inkscape="http://www.inkscape.org/namespaces/inkscape" xmlns:rdf="http://www.w3.org/1999/02/22-rdf-syntax-ns#" xmlns:sodipodi="http://sodipodi.sourceforge.net/DTD/sodipodi-0.dtd" xmlns:svg="http://www.w3.org/2000/svg"
	 xmlns="http://www.w3.org/2000/svg" xmlns:xlink="http://www.w3.org/1999/xlink" x="0px" y="0px" viewBox="0 0 665.5 795.3"
	 style="enable-background:new 0 0 665.5 795.3;" xml:space="preserve">
<style type="text/css">
	.st0{fill:#2F56A6;stroke:#2F56A6;stroke-width:3;stroke-miterlimit:10;}
</style>
<g id="Brooklyn">
	<path id="path60" class="st0" d="M660.1,344c0.4,3.3,5.5,10.1,3.4,13.1c-0.9,1.2-4.6,2.1-6.1,1.6c-1.7-0.6-2.1-3-4.1-2.4
		c-0.9,0.2-3.1,2.7-3.4,3.7c-0.8,2.6,2.1,3.2,3.8,4.6c2.8,2.1,4.3,6.9,0.2,8.6c-1.8,0.7-2.4,0-4.1-0.2c-1.8-0.3-3.2,0.6-4.6,1.6
		c-1.4,1.1-2.5,2.9-4.1,3.8c-1.8,0.9-4.1,0.9-5.9,1.6c-1,0.4-3.6,1.8-3.1,3.2c0.4,1.1,3.7,1.6,4.7,2.2c3.2,1.7,1.4,4.7,2.4,7.3
		c-0.8-0.2-1.6-0.2-2.4-0.2c-0.9,4.5,7.8,6.9,10.3,8.9c4.5,3.5,7.9,11.5,8.4,17.1c0.2,2.7-1.2,4.2-1.4,6.8c-0.3,2.6,0.3,5.3,0.3,7.9
		c0,2.9,0.4,7.2-1.4,9.6c-1.6,2.2-5,3-7.4,3.5c-2.9,0.6-4.3,1-6.6,2.8c-2.5,1.9-2.9,2-4.6-1.1c-2.4-4.2-0.5-9-2.4-13.2
		c-1.3-2.7-5.7-11-8.8-10.9c1.8,3.9,5.3,8.1,5.5,12.3c0.2,5.2-2.9,7.3-6.9,9.9c-1.7,1.1-3.3,2.8-5.4,2.5c-2.7-0.3-3.8-3.2-5.3-5.2
		c-2.2-3.2-7.6-9-12-8.2c-0.7,4,2.5,9.1,4,12.6c2.4,5.6,5.2,8.8,9.3,13.1c3.1,3.2,8.7,6.8,9.6,11.5c1.1,6.6-10.4,9.1-14.1,12.8
		c-1.5,1.5-3.2,7.8-4.9,8.2c-1.4,0.3-7-5.7-8.2-6.9c-4.8-4.6-9.5-8.6-14.8-12.3c1.1,3.2,3.2,6.9,5.4,9.3c2.3,2.5,6.7,4.3,7.8,7.5
		c1.4,3.9,0.4,8.4-4.1,6.9c-4.7-1.6-5-5.5-9.3-1.1c-4.3,4.4-7.2,9.3-8.3,15.2c-0.2,1.1-0.1,4.8-1.3,5.5c-1.7,1-3.6-1.8-3.9-1.6
		c-2.2,1.2-3.6,4.4-5.5,6.1c-2.6,2.3-5.8,11.4-8.9,11.5c-3.8,0.1-5.8-5-8.4,0.1c-1.5,2.9,0.2,7.9,0.2,11.1c0,4-0.5,8.1-5.3,9.4
		c-5,1.3-4.7-2.8-7-5.8c-2.5-3.3-7.3-4.9-11.2-2.8c-4.2,2.3-2.1,5.4-0.1,9.1c4.2,7.8,8.6,15.6,13.7,22.8c4.7,6.6,7.8,13.8,12.3,20.4
		c3.7,5.3,9.7,12-1.2,12c-4.1,0-7.8-0.4-11.5,1.2c-4.2,1.7-7.2,5.2-10.9,7.8c-3.2,2.3-8.4,3.3-10.9,6.7c-2.2,3-1.5,7.6,2.8,7.8
		c3.3,0.3,6.8-3.8,10.7-4.1c6.9-0.6,14,0,20.9,0c4.2,0,10.8-0.7,13.6,2.5c3.9,4.4,2.8,11.9,4.4,17.2c2.1,7,5.8,13.4,8.4,20.3
		c4,10.2,6.3,21.2,10.6,31.6c2.2,5.4,4.3,10.7,5.9,16.2c1.4,4.6,3.8,8.9,3.3,13.9c-0.7,7.2-11.2,8.9-17.4,11.3
		c-10.1,3.8-20.4,4.9-30.5,9c-7.2,3-17,12.2-23.5,5.9c-2.7-2.6-4.3-5.8-6.9-8.4c-3.3-3.4-7.6-4.7-11.9-6.5
		c-3.2-1.4-12.5-4.3-10.4-9.5c1.5-3.9,7.2-1.8,9.5-0.2c3.5,2.5,4,6.3,8.6,7.2c3.4,0.7,7.2,0.1,9-3c5.3-9.4-5-13.1-8.2-19.6
		c-1.7-3.5,0.3-10.5-4-11.6c-3.6-0.9-5.9,3.2-8.6,4.9c-10.3,6.5-8.6-8.5-16.4-6.5c-0.1,3.4,5.4,4.3,4.4,8.1
		c-3.7,0.9-4.9,1.9-7.6,4.7c-2.5,2.5-5.7,4.8-8.9,2c-1.4-1.2-2.6-7.8-6.1-4.6c-2,1.8,0.2,7.1,1.2,8.7c3.3,5.3,9.9,6.8,4.9,13.9
		c-5.4,7.7-8.2-2.2-14.3-1.1c-0.1,2.1,0,4.4-0.1,6.5c-4,0.6-7-2-10.3-3.7c-5-2.6-10.1-5.4-15.2-7.7c-8.6-3.9-20-12-28.1-4.7
		c-7.8,6.9-16.8,7.5-27.1,7.5c-2.6,0-17.9,1.1-9.6,3.3c5,1.3,12.3,0,17.5,0c4.8,0,8-0.2,10.2,4.4c1.6,3.2,2.7,8.5,2.9,12
		c0.3,6.4-10,18.2-11.2,7.5c-8.7-0.5-18.4,1.8-27,3.3c-7.6,1.3-15.3,3-23,4.1c-6.6,0.9-13.3,0.5-20,0.4c-5.9-0.1-11.5,2-17.3,3.1
		c-13.1,2.5-26.3,4-39.5,6.3c-9.4,1.6-18.9,2.2-28.1,5c-8.9,2.7-16.7,6.7-26,8c-14.9,2.2-29.6,3.6-44.8,3c-5.5-0.2-10.9-1-15.8-3.8
		c-3.8-2.3-5.9-6.3-9.8-8.6c-5.3-3.3-10.6-3-16.6-4c-3.9-0.7-7.4-0.9-8.2-5.4c-0.3-1.8,0.9-3.8,0.4-5.8c-0.5-2-2-3.2-2.9-4.9
		c-1.8-3.7-1.1-6.2,1.6-9.3c2.7-3.1,7.2-6.2,11.1-7.6c3.7-1.4,7.6-0.1,10.3-3c1.4-1.5,0.2-2.8,2.5-4c1.6-0.8,4.1-0.7,5.5,0.3
		c0.8,0.6,0,2.6,1.1,3.4c0.9,0.6,3.2,0.8,4.2,0.9c2.2,0.2,4.5-0.1,6.7,0.1c5,0.5,10.7,0.9,15.6,2.5c3.8,1.3,6.9,3.7,10.7,4.8
		c1.9,0.6,5.3,1.6,7.4,0.8c1.6-0.6,1.8-2.1,2.8-2.6c4.8-2.3,5.8,4.1,10.4,2.9c0.5-6.5-4.1-7.1-8.3-10.1c-3.4-2.4-4-12-6.5-12.5
		c-1.9-0.4-5.7,2.3-8.2,2.5c-5.8,0.3-11.6-0.4-16.1-3.7c-3.4-2.5-8.7-7.6-7.8-12.4c0.9-5,7.6-5.3,11.5-6.2c0.8-3.9-3.4-6-2.4-9.8
		c1.1-4.2,6.6-4.9,5.7-10.7c-2.9-0.3-9.6,5.1-11.4,0.4c-1.6-4.1,5-4.1,5.7-7c1.5-6.6-13.2-10.4-13.3-0.5c-6.5-1.6-12.2-12.4-16-17.3
		C114,645,92,643.6,71.3,639.2c-5.6-1.2-11.6-1.4-17-3.9c-3.9-1.8-7.2-4.7-11-6.5c-3.7-1.8-7-4.7-10.5-6.5c-4.8-2.5-5.6,0.1-5.7,4.4
		c-3-1.2-2.4-4.6-2.4-7.4c0-3.9-0.4-6.5-2.2-10c-3.4-6.6-6.2-13.2-9.1-20.2c-5.1-12.2-11.4-25.2-11.8-38.7c-0.2-7,0-14.1,0-21.1
		c0-6.5-0.2-12.8,1.9-19c2.5-7.2,6.3-13.9,9.5-20.8c3.3-7.1,4.4-14.5,8.7-21.1c4-6.2,5-13.8,9.7-19.7c2.5-3.1,4-3.7,7.7-3.6
		c1.4,0,11.9,3.8,11.9,3.9c1.3-8.4-10.4-6.5-11.1-14.4c-0.2-2.7,1-6.2,2.9-8.1c3.7-3.8,6.3-3.5,9.4-0.1c2.4,2.6,4.3,6.2,8.7,4.9
		c4.3-1.3,1.8-3.1,1.3-6.6c-0.4-2.7-0.9-8.1,2.4-9.4c2.7-1.1,6.4,3.5,8.7,1.6c3.7-3.1-3.3-7.7-5.3-8.6c-4.6-2-5.3-2.5-2.1-7.5
		c4.3-6.7,10.9-12.2,16.8-17.6c1.7-1.6,5.7-8,8-7.4c2.9,0.8,1.2,8.8,6.2,5.5c3.1-2.1,0.2-7.2,5-3.8c4.8,3.4,4.6,6.7,11.8,4.9
		c0.4-7.9-3.5-7.1-9.4-10.8c-6.1-3.8-1.4-7.8,2.9-11.1c5.2-4,12-7.1,17.4-3.2c4.1,3,6.6,8.2,12.6,5.7c5.1-2.1,0-2.7-1.5-6.2
		c-1.6-3.7,1-6.7,4.4-4.4c2.9,1.9,3,6.8,7.1,6.9c3.3,0.1,7.2-3.7,5.4-7c-1.7-3.2-9.3-2.7-7.9-8.2c0.8-3.1,2.3-2.1,4.6-1.8
		c2.9,0.5,7.8,2.6,10.4,0.3c1.1-1,1.8-3.9,1.3-5.3c-0.5-1.4-5-3.5-5-2.8c-0.6-3.9,2.2-7.8,1.9-12.2c-4.8,2.1-4.4,9-9.5,11
		c-5.3,2.1-8.9,1.3-12.4,7c-0.7,1.2-1.7,6.5-4,5c-1.5-1,0-5.4,0.4-6.5c1.8-4.9,6.8-8.9,3.7-14.4c-2.1-0.1-2.9,1.6-4.2,3.2
		c-2.5,3.1-3.7,6.7-6.1,9.9c-2.6,3.6-7,5.9-10.3,8.6c-4.5,3.7-11.2,11.2-17.7,9.4c-3.3-0.9-6.1-4.2-7.8-7c-2.3-3.6-1.2-5.4-0.8-9.4
		c0.3-3.8-0.7-7.7-2.4-10.8c-1.5-2.8-5.5-5.8-4.6-9.3c6.3-1.1,10.4,6,11.1,11.1c0.7,5.6-1.6,11.9,5.3,14.4c9.4,3.4,12.1-5.1,11-12.8
		c-1.5-10.4-7.7-13.1-15.6-19c-3.6-2.7-7.6-4.6-11-7.4c-6.3-5.2-5.7-12.6-3.3-19.7c2.8-8.1,12.2-12.8,19.2-17.4
		c9.1-6.1,18.1-11.5,26.7-18.4c8.5-6.8,13.9-16.3,19.6-25.3c6.4-10.3,10.8-19.8,12-31.8c0.5-5.4,1.3-9.2,4.1-13.9
		c2.3-3.9,6-6.3,8.5-10c2-2.8,2.1-7.2,5.4-8.9c4.1-2.1,7.5,0.1,10.6,1.6c7.6,3.6,20.6,2.1,29,1.6c9.2-0.6,19.3-6.2,25.4-13.1
		c1.6-1.8,4.1-8.8,6.2-9.2c2.9-0.6,5.6,6.7,6.6,8.7c2.1,4.2,2.2,8.1,2.8,12.7c0.4,2.7,4.9,13.2,9.6,9c2.7-2.4-1.4-11.2-2.6-13.7
		c-2.1-4.3-5-8-6.6-12.5c-1.4-3.9-1.9-9.5-1.2-13.8c1.4-7.7,7.1-15.4,10.2-22.5c3.9-8.7,6.5-18,11.6-26.2c4.8-7.8,9.2-14.5,9.2-23.7
		c0-8.1-3.3-14.2-4.8-21.9c-1.1-5.9-1.5-13-1.4-20c2.9-0.3,6.5-3.1,9.1-4.1c3.8-1.5,7.1-2.5,10.5-4.9c7.6-5.2,16.3-8.5,25.4-5.1
		c7.6,2.9,14.7,8,21.8,12.1c3,1.7,6.2,3.6,8.7,5.8c2.8,2.4,4.5,6.5,6.4,9.7c3.2,5.4,6,11.3,9.9,16.2c1.8,2.4,4,3.3,6.7,4.4
		c3.4,1.4,6.7,3,10.3,3.5c2.7,0.4,5.5,0.4,8.1,1.2c4.5,1.3,8.2,4.3,11.1,7.9c6.1,7.8,8.8,18,11.3,27.4c0.3,1.2,0.6,2.4,1,3.6
		c0.6,2.2,0.3,3.5,0,5.6c-0.4,3.1,1,2.7,3,4c1.6,1.1,2,3.7,0.9,5.3c-1.6,2.2-5.2,1.4-6.7,3.5c-0.9,1.3-0.9,3.9,0,5.1
		c1.1,1.5,3.3,1.7,4.5,3.1c1.4,1.6,1.9,3.5,3.5,5c1.2,1.2,3.4,2.2,4.2,3.8c0.9,1.7-0.2,4,0.4,5.8c0.5,1.6,3.5,2.1,3.7,3.7
		c0.4,2.2-3.3,2.3-4.8,2.8c-2.7,1.1-1.7,2.6,0.6,3.9c3.4,1.9,6.1,4.5,9.2,6.8c1.4,1,2.6,2.1,3.9,3.2c1.9,1.6,4,0.9,6,1.9
		c1.5,0.7,3.2,2.9,4.5,4.1c2,1.8,3.1,3.8,4.8,6c2.6,3.5,3.7,2.7,7.6,2.9c0.9,3.5-5.6,2.8-7,4c-2.2,2.1,1.6,3.5,3.3,3.8
		c1.6,0.3,3.8-0.1,5.2,0.9c0.8,0.5,2.5,2.8,2.5,3.7c-0.1,1.7-3.1,2.2-4.4,3.3c-1,0.8-3.6,2.1-3.3,3.2c0.7,2.2,7.6,2.7,9.6,3.5
		c2.7,1.1,4,3.2,6,5.1c3.6,3.5,8.7,5.5,12.2,9.1c3.7,3.8-7.4,4.8-6.3,9.6c2.3,1.3,5.1,1.8,7.5,3.1c1.9,1.1,3.8,2.1,5.7,3.1
		c1.6,0.9,2.9,2.4,4.2,3.6c2.5,2.5,0.4,1.6-1.2,3.2c-1.7,1.7-0.1,3.8,1.4,4.9c1.9,1.5,2.5,1.8,3.1,4.1c0.6,2.3,0.6,2.3-0.9,4.1
		c-1.5,1.8-1.5,2.6,0.3,3.8c0.9,0.6,2.5,0.7,3.1,1.6c0.6,0.8,0.2,1.8,0.4,2.7c0.5,2.1,1.8,4.6,3,6.5c1.6,2.2,3.9,3.7,5.4,5.9
		c1.3,1.8,2,3.8,3.1,5.5c3.6,0.4,3.4-5.5,4.3-7.6c0.6-1.3,1.8-1.8,2.7-2.9c0.8-1,1.1-2.9,2.4-3.1c0.8,2.7,2,5.7,3.3,8.2
		c0.6,1.1,0.8,2.4,2.2,1.9c1.3-0.5,2.7-3.7,4.2-4.6c1.9-1.2,4-1.7,6.1-2.6c3-1.2,3.4-3.3,5.3-5.6c2.2-2.7,5.3-4.6,8.2-6.5
		c2.9-1.8,5-3.9,7.4-6.1c1.9-1.7,4.2-3,6.2-4.5c4.4-3.2,6.8-7.7,10.6-11.6c2.8-2.9,6.4-5.4,9.8-7.6c4.1-2.7,9.5-3.7,14.1-5.2
		c2.3-0.8,5.4-2.7,7.9-2.6c3.8,0.1,3.5,3.4,3.5,6.4c0,3.5-0.2,6.9,0.3,10.4c0.7,4.4,2.6,8.7,3.5,13.2c1.1,5.2,1.4,10.5,2.9,15.7
		c1.3,4.6,1.6,9,2.2,13.7c0.1,1,0.3,2.9,0.9,3.7c0.8,1.1,0.7,0.8,2.2,0.9c2.2,0.2,3.8-0.5,4.9,1.8c0.8,1.6,0.5,3.9,0.5,5.8
		c0,2.9,0.6,2.2,2.7,3.1c4.4,1.8,4.1,8.7,4.4,12.6c0.1,3.1,0.8,5.7,2,8.6c1.6,3.5,2.1,8,2.4,11.8c0.2,2.4,1.3,7.9,4.4,4.2
		c1.1-1.2,1.8-3.8,3.2-4.6c2.3-1.2,2.7,1.6,2.8,3.4c0.1,2.4-0.9,4.1-0.9,6.4c0.1,2.1,1,4.3,1.9,6.1c0.8,1.7,2,3.4,2.6,5.3
		C660.1,339.6,659.9,341.8,660.1,344z"/>
</g>
</svg>
