<?xml version="1.0" encoding="utf-8"?>
<!-- Generator: Adobe Illustrator 22.0.1, SVG Export Plug-In . SVG Version: 6.00 Build 0)  -->
<svg version="1.1"
	 id="NYC" inkscape:version="0.47 r22583" sodipodi:docname="New_York_City_location_Manhattan.svg" xmlns:cc="http://creativecommons.org/ns#" xmlns:dc="http://purl.org/dc/elements/1.1/" xmlns:inkscape="http://www.inkscape.org/namespaces/inkscape" xmlns:rdf="http://www.w3.org/1999/02/22-rdf-syntax-ns#" xmlns:sodipodi="http://sodipodi.sourceforge.net/DTD/sodipodi-0.dtd" xmlns:svg="http://www.w3.org/2000/svg"
	 xmlns="http://www.w3.org/2000/svg" xmlns:xlink="http://www.w3.org/1999/xlink" x="0px" y="0px" viewBox="0 0 496.8 913.2"
	 style="enable-background:new 0 0 496.8 913.2;" xml:space="preserve">
<style type="text/css">
	.st0{fill:#2F56A6;stroke:#2F56A6;stroke-width:3;stroke-miterlimit:10;}
</style>
<defs  style="display:none;">
	
	
		<inkscape:perspective  id="perspective144" inkscape:persp3d-origin="250 : 164.8 : 1" inkscape:vp_x="0 : 247.2 : 1" inkscape:vp_y="0 : 1000 : 0" inkscape:vp_z="500 : 247.2 : 1" sodipodi:type="inkscape:persp3d">
		</inkscape:perspective>
</defs>
<g id="Manhattan">
	<path id="path82" class="st0" d="M483.4,32.7c1.8,7.6-1.1,19.4-5.8,25.5c-2,2.6-4.9,4.6-7.9,5.9c-2.2,0.9-5.3,1.1-6.9,2.9
		c2.5,1.2,4.2,2,3.8,5c-0.3,2.6-2,3-3.6,4.9c-2.2,2.4-4.2,5-6.6,7.2c-1.6,1.5-3,4.5-4.8,5.6c-2.1,1.3-2.9-1.6-5,0.1
		c-2,1.5-2.3,6.9-3,9.2c-3.6,12.4-10.9,22.7-17.3,33.8c-2.1,3.7-3.4,7.8-5.3,11.6c-2.1,4.1-4.1,8-5.6,12.3c-1.3,3.6-3.6,6.2-5.2,9.6
		c-1.2,2.6-1.5,6.2-2,9.1c0,0.1,0,0.2,0,0.2c-1.1,6.5-3.5,12.7-6.1,18.9c-2.7,6.3-4,11-4.4,17.9c-0.2,5.7-0.6,11.6,0,17.3
		c1.1,10.1,3.6,19.9,4.4,30c0.7,9.2-0.7,18.3-1.6,27.4c-0.5,5.1-0.3,10.3-0.3,15.4c0,4.1,0,8.1,0,12.2c0,3.4,0,6.8,0,10.2
		c0,3.8-0.2,5.8,2.5,8.6c2.4,2.6,5,4.7,7.2,7.6c4.5,5.9,9.3,12.1,10.8,19.4c1.1,5.2,0.5,11,0.5,16.4c0,4.5,0.8,9.4-1.9,13.2
		c-2.5,3.6-6.3,5.7-9.7,8.4c-4.4,3.6-9.4,6.7-13.3,10.9c-3.1,3.3-4,7.5-5.7,11.5c-1.3,3.3-2.8,6.3-5,9c-4.9,6.2-15.1,10.7-16.4,19.2
		c-0.5,3.1,0.7,6,1.9,8.7c1.4,3.1,2.1,6.3,3.2,9.5c0.9,2.5,3.4,6.1,3.4,8.7c0,3.1-4.4,5.9-6.2,8.1c-2.9,3.5-5.6,7-8.8,10.2
		c-7.6,7.5-12.7,16.5-18,25.6c-3.1,5.2-6.1,10.3-9.8,15.2c-8.1,11-17.3,21.3-25.4,32.4c-6.5,9-12.2,18.6-18.3,27.8
		c-5.5,8.2-12.5,15.3-16.2,24.5c-1.6,4-3.8,7.8-3.8,12.1c-0.1,4.6,1.6,9.2-1.1,13c-1.4,2-1.8,3.1-1.6,5.7c0.3,4.5,3.5,6.7,4.4,10.5
		c1.8,7.7-6.7,3.3-9,6.9c-2.9,4.6,6.4,6.1,8.1,7.4c-2,2-6.8,0.4-9.1,2.8c-2.4,2.5,0.7,4.3,2.8,6.1c5.9,5.2,9.4,10.9,8.6,18.8
		c-0.4,4.3-1.3,8.4-1.9,12.7c-0.4,2.3-0.7,5-1.4,6.9c0,0-0.9,0.6-1.1,1.1c-0.2,0.6,0.1,1.4,0,1.9c-1.5,10.3-2.1,21.1-6,30.8
		c-2,5-4.4,9.9-6.3,14.8c-1.5,4-3.4,6.9-6.7,9.5c-2.9,2.3-5.6,3.6-9.1,4.7c-3.8,1.2-7.3,2.9-11.3,2.9c-4.4,0-8.6,0.8-13,2
		c-2.9,0.8-6,4.7-9.3,3.4c-3.2-1.2-1.8-4.2-2-6.8c-0.2-2.6,0-2.2-2.5-2.5c-1.5-0.1-2.9,0.1-4.4,0.3c-4.6,0.4-9.4,1.1-13.7,2.8
		c-4.4,1.7-8.2,4.5-12.5,6.4c-2.9,1.3-5.3,2.4-4.6,6.2c0.5,2.7,2.6,4.2,1.7,7.2c-2.5,7.9-10.4,13.7-16.4,18.9
		c-8.8,7.5-5.3-6.9-11.7-5.2c-7,1.9,5.9,11-1.9,12.1c-4.4,0.6-2.9-1.3-4.4-3.9c-1.9-3.1-5.6-0.6-7.2,1.4c-2.1,2.6-3,3.6-6.8,3.2
		c-2.8-0.3-5.3-1.9-7.4-3.8c-1.5-1.4-2.4-2.9-3.2-4.8c-0.9-2-2.9-4.6-3.4-6.6c-1-4.2,2.6-3.2,3.9-5.8c1.6-3.5-2-4-4.2-3.5
		c-2.4,0.5-6.8,2-8.2-0.9c-1-2.1,0.9-7,1.4-9c1.1-4.6,2.3-8.9,3.1-13.5c0.7-4.1,2.3-7.8,3-11.9c0.9-5.3,1.4-10.6,1.6-15.9
		c0.6-12.9,5.2-25.4,6.6-38.1c0.3-2.6,0.1-8.4,1.4-10.6c1.5-2.5,7.3-2.8,10.1-3.3c2.7-0.5,5-0.9,1.9-3.3c-2.7-2-14.7-3.8-10.2-8.9
		c1.2-1.3,4-2.4,4.5-4.6c0.8-3.6-2.2-1.5-3.9-3.1c-4.1-3.8,9.6-4,11.2-4.5c1.6-5.9-8.8-2.4-9.9-6.5c-0.8-3.2,2.3-7.6,3-10.5
		c0.9-3.3,0.8-4.1,4.7-4.9c1.8-0.4,6.7-0.6,5.2-3.7c-1.2-2.6-5.6-2-7.7-2.4c-2.9-0.5-3.3-2.4-0.6-3.9c2.1-1.1,4.8-0.5,3.9-4.1
		c-0.5-1.8-2.3-3.8-3.7-5.1c-2.1-2.1-2.4-2.5-1.4-5.6c1-2.9,1.6-5.3,1.5-8.5c-0.4-7.3,0.1-13.6,5.7-19c3.3-3.2,7.5-4.5,3.8-9.8
		c-2.4-3.4-7.4-4.5-4-10c2.3-3.7,4.8-7.5,4.6-12.3c2.8,0.1,1.9,2.8,3.3,4.1c1.8,1.6,4.1-0.2,5.2-1.9c1-1.5,1.8-4.4,0.9-6.2
		c-0.8-1.5-2.8-2-3.2-3.9c-0.2-1.1,0.7-3.7,1-4.8c1-3.7,3.3-6.9,5.4-10c0.9-1.3,1.3-2.3,2.5-3.2c0.9-0.6,2.8-0.6,3.3-1.1
		c3.3-2.7-1.6-2.3-3.3-3.3c-1.8-6.5,12.7-0.9,11.2-6c-1.4-1.3-3.7-1-4.1-3.3c-0.3-1.9,1.5-3.9,3.3-4.1c1.5-0.2,4.6,1.9,4.9-0.6
		c0.2-1.7-2.5-2.6-3.8-2.8c-1.2-5,6.2-0.5,7.9-0.8c0.6-2.4-2.1-1.7-3-3.2c-0.7-1.2,0-3.4,0.1-4.6c1,0.8,8.1,4.7,8,1
		c-0.1-2.5-4.5-2-5.4-4c-1.3-3.4,3.1-0.6,4.8-1.4c3.4-1.7-2-1.9-2.5-3.3c-1-2.7,3.6-2.6,4.7-3.7c2.5-2.3-0.6-3-1.2-5.4
		c-0.6-2.5,1.1-3.6,2.6-5.4c2.5-3,2.7-12.2,7.9-11.3c0.2,1.1,0.7,3.5,1.6,4.1c1.7,1.2,3.4,0.2,3.6-1.6c0.4-3.3-4-5.2-1.6-8.8
		c1-1.4,2.5-2.1,3.5-3.9c0.7-1.4,1-2.7,2-3.9c2-2.3,7.6-2.9,5.6-6.9c-0.9-1.8-4.7-1.9-5-3.3c-0.7-2.6,4.2-1.9,5.5-1.9
		c2.5,0,4,0.3,5.7-1.4c1.7-1.7,2.8-4.7,4-6.9c3.4-6.2,7.5-12.2,10.6-18.7c1.7-3.5,2.8-7.3,4.6-10.7c2.2-4,5.3-6.3,7.8-9.8
		c2.3-3.3,3.6-7.3,5.7-10.7c3.7-6.3,6.7-12.9,10.3-19.3c2.8-4.9,5.3-9.3,7.1-14.6c0.8-2.5,1.2-4.9,2.2-7.4c3.7-9,9.9-17.4,15-25.7
		c3.8-6.1,6.9-12.6,10.2-18.9c2.1-4.1,3.4-8.7,5.4-12.9c1.8-3.8,4.4-7.1,6.5-10.7c1.1-1.9,4.8-6.3,4.6-8.6c-0.1-2.6-3.8-2.4-3-4.7
		c0.8-2.2,5.4-2.4,6.8-4.3c1.7-2.3,1.2-5.9,4.2-7.4c1-0.5,2.2,0.1,3.2-0.3c1.2-0.5,1.8-1.9,2.4-3c5.4-9.1,12.1-17.5,18-26.4
		c5.7-8.6,9.7-18.7,13.4-28.2c3.5-9.2,5.3-18.7,8.2-28c2.2-7,7.8-14.4,8.2-21.8c0.4-6.8-4.3-10.7-6.5-16.9
		c-1.4-3.9-0.6-7.5,1.7-10.8c2.1-2.9,4.1-3.5,6.8-5.3c4.9-3.1,8-9.2,11-14c6.3-10.3,11.7-21,17.8-31.3c4.6-7.9,8.7-15.7,12.4-24
		C408.4,50.6,410,44,410,36c0-3.1-0.4-6.7,0.3-9.6c0.8-3.4,3.6-7,5.8-9.6c2.6-3.3,5.7-6.2,8.4-9.3c1.9-2.1,3.3-3.9,6.4-3.6
		c6.1,0.4,9.9,5.6,10.1,11.2c0.1,3.4,0.2,6.9,2.8,9.4c1.8,1.7,6.6,3.6,8.7,1.4c2-2-0.1-5.4,2.8-6.6c3.3-1.3,8,1.8,10.9,3
		C471.5,24.5,481.9,26.3,483.4,32.7z"/>
	<path id="path84" class="st0" d="M469.8,379.6c-4.1,3.9,5.1,11.9,4.6,16c-0.7,6-10.6,10.9-14.3,14.9c-5.6,6.1-11.6,13.3-13.3,21.3
		c-0.8,4.1-0.1,9-2.5,12.4c-2.1,3-5.4,5.9-7.8,8.7c-2.4,2.8-6.3,5.6-10.2,5.6c-1.1,0-2.3-0.2-3.4-0.8c-1.2-0.6-2.2-2.7-3.4-3.5
		c-1.9-1.5-4.2-2.2-6.4-3.2c-5.2-2.3-19.8-7.6-17.5-15.5c1-3.1,2.9-5.3,3.7-8.6c1.1-4.1,2.4-4.9,6.1-7c7.4-4.2,11.9-8.8,16.3-15.8
		c2.5-4,4.8-7.7,5.3-12.6c0.4-4.7-0.2-9.4,0-14c0.4-7.6,7.5-12.8,2.5-20.1L446,356L469.8,379.6z"/>
	<path id="path86" class="st0" d="M395.8,457.2c1.1,3.4-3.5,5.1-5.3,7.5c-1.1,1.4-1.9,4.9-4.4,4.7c-2.1-0.1-2.4-3.3-2.9-4.9
		c-1.1-3.5-1-9.8,2.8-11.8C389.1,451.1,394.7,454,395.8,457.2z"/>
	<path id="path90" class="st0" d="M384.5,486.8c0.1,0.7,0.2,1.4,0.2,2.1c0,2.4-0.7,5.2-1.2,7.3c-1.7,6.8-6.8,11.2-10.5,16.9
		c-10.6,16.4-18.9,34.2-30,50.2c-6.1,8.8-14.5,15.9-20.7,24.7c-3.4,4.8-9.3,15.3-16,14.7c-0.2-3.1-0.1-6,1-8.7
		c1.4-3.5,3.6-6.5,4.8-10.1c2.6-7.6,8-14.4,12.8-21c4.9-6.7,10.2-13,15.1-19.8c5.6-7.6,10.8-15.6,16.4-23.3
		c4.3-5.8,7.5-12,10.6-18.4c0.8-1.7,1.8-3.2,2.8-4.6c1.1-1.4,2.3-2.6,3.8-3.7C375.4,491.9,383.2,480.7,384.5,486.8z"/>
	<path id="path92" class="st0" d="M294.9,605.4C294.9,605.4,294.9,605.4,294.9,605.4c0.2-1,0.5-2.3,1.1-2.5c1.5-0.6,2.2,4.4,2,5.4
		c-0.8,3.4-4.9,3.4-6.6,6c-0.9,1.4-0.1,3.8-1.1,4.9c-0.7,0.8-3,0.7-3.6-0.3c-0.5-1-0.1-3.4-0.1-4.6c0-1.8,0.3-2.2,1.8-3.4
		c1.2-1,2.4-1.9,3.6-2.9C292.9,607.4,294.4,606.5,294.9,605.4z"/>
	<path id="path94" class="st0" d="M127.9,875.4c0.1,2,0.6,5,0.1,7.4c-0.2,0.9-0.5,1.7-1,2.4c-1.7,2.2-5.4,3.8-7.9,4.8
		c-4.3,1.8-8.3,3.4-12.2,6c-4.3,2.9-7.7,6.5-12,9.4c-2.4,1.6-4.2,3-6.2,5.1c-1.5,1.4-3.7,1.6-5.6,0.7c-3.6-1.6-5.9-5.1-8.7-7.6
		c-1.6-1.5-2.4-2.7-2.2-5c0.2-1.7,0.6-4,1.4-5.5c0.9-1.6,2.5-2.5,4-3.6c2-1.6,4-3.3,6-4.8c2.6-1.8,4-4.2,5.6-6.9
		c1.6-2.6,2.5-5.8,4.6-8.1c1.9-2.1,4.3-3.8,6.5-5.6c1.9-1.6,4.2-3.6,6.7-4.4c3.3-1.1,7.7,1.3,10.2,3.3
		C121.2,866.4,127.6,869.4,127.9,875.4z"/>
	<path id="path96" class="st0" d="M41,836.8c1.5,1.1,1,4-0.5,4.8c-1.4,0.8-3.4,1.1-4.9,1.4c-1.9,0.4-2.9,0-4.2-1.5
		c-1.6-1.7-2.3-3.5-4.1-5c-1.9-1.6-3.1-2.6-3.2-5.1c0-1.6,0.1-2.9,1.9-3.5c2-0.6,4.5-0.3,6.2,1c1.2,0.9,0.9,1.6,1.3,2.7
		c0.5,1.3,1.8,1.8,2.8,2.6c0.8,0.6,1.5,1.3,2.3,1.8C39.4,836.3,40.5,836.4,41,836.8z"/>
	<path id="path98" class="st0" d="M28,846L28,846c-0.3,0.9-1.2,1.6-1.5,2.5c-0.3,0.9-0.5,1.8-0.8,2.7c-0.6,1.4-1.4,3.3-3.1,2.9
		c-1.6-0.4-2.1-2.2-3.2-3.3c-1.2-1.2-4.2-2.2-4.6-4c-0.4-1.4,1.7-2.8,2.3-3.9c0.6-1,0.5-2.1,1-3c0.4-0.8,1.4-1.7,2-2.3
		c1.2-1,2.6-1.3,3.3,0.2c0.4,0.8,0.3,1.4,0.8,2.1c0.7,0.8,1.6,1.2,2.4,1.8C27.4,842.2,29.9,845.3,28,846z"/>
	<path id="path100" class="st0" d="M22.6,883.4c0.5,2.4-1.8,3.1-3.2,4.2c-0.5,0.4-5.2,6.7-5.5,6.7c-1.8-1-2.4-3.3-3.6-4.8
		c-1.4-1.8-2.7-3.7-4.7-4.9c-1.6-1-4.1-2.3-4-4.3c0.1-1.9,1.8-1.8,3-2.9c1.3-1.3,2.1-4.1,3.9-4.8c1.7-0.7,3,1.3,4,2.3
		c1.5,1.6,3.2,3,5.1,4.1C19,880,22.2,881.4,22.6,883.4z"/>
	<path id="path2950" sodipodi:nodetypes="ccccc" class="st0" d="M466.4,12.3l6.5-7.7c7.3-9,24.5,3.4,22.2,14.8l-3.6,15.3
		C490.2,18.2,471.6,12.7,466.4,12.3z"/>
</g>
<sodipodi:namedview  bordercolor="#666666" borderopacity="1" gridtolerance="10" guidetolerance="10" id="namedview138" inkscape:current-layer="katman_1" inkscape:cx="250" inkscape:cy="247.2" inkscape:pageopacity="0" inkscape:pageshadow="2" inkscape:window-height="1000" inkscape:window-maximized="1" inkscape:window-width="1680" inkscape:window-x="-8" inkscape:window-y="-8" inkscape:zoom="1.5230583" objecttolerance="10" pagecolor="#ffffff" showgrid="false">
	</sodipodi:namedview>
</svg>
