<svg xmlns="http://www.w3.org/2000/svg" viewBox="0 0 932.84 1174.12"><defs><style>.cls-1{fill:#2f56a6;stroke:#2f56a6;stroke-miterlimit:10;stroke-width:3px;}</style></defs><title>Asset 1</title><g id="Layer_2" data-name="Layer 2"><g id="katman_1" data-name="katman 1"><path id="path12" class="cls-1" d="M799.17,914.84l.21,44-15.3-.79c-2.08-1.68-4.35-4.22-6.92-4.08-3.36.19-7.39,3.45-10.32,5-3.49,1.84-6.69,4.76-9.89,7.08-7.12,5.15-14.57,10.32-23.25,12.41-3.39.78-7.22.4-10.75.4-3.91,0-7.91.23-11.8,0a47.64,47.64,0,0,1-20.58-5.48c-6.86-3.69-16.64,1.32-23.43,2.8-5.81,1.25-11.44,2.22-17.15,3.92-4.48,1.36-9.79,1.69-13.85,3.83s-8.6,3.32-13.15,4.55c-4.72,1.28-9.2,3.17-14,4-6.83,1.19-13.32,3.4-20.22,4.52-8.71,1.41-16.23,6.17-24.69,8.21-9.37,2.31-18.59,5.09-27.76,7.94-6.92,2.15-14,3.53-20.87,5.91-7.78,2.74-15.57,5.74-23.47,8.21-4.62,1.42-9.34,2.6-14,3.92a71.39,71.39,0,0,0-13.88,5.74c-6.63,3.37-13.29,6.73-19.92,10.08-13,6.57-25.94,13.19-38.57,20.43-8.18,4.7-16.09,9.41-24.75,13.24-4.93,2.17-11.2,3.53-15,7.48-1.15,1.19-1.58,2.54-3.32,2.24s-1.49-2-2.68-2.73c-1.41-.93-3.72.39-5,.89-6.26,2.41-11.77,7-17.64,10.28-13.12,7.29-27.33,13.72-41.93,17.25-9.75,2.38-19.41,5.47-29.08,8.22a111,111,0,0,0-22.06,8.8c-2.42,1.27-5,2.13-7.45,3.25-1.62.73-3.1,2.38-4.75,2.84-5.14,1.45-5.18-6.73-9.26-5.76-2.77.62-5.64,2.67-8.48,3.49-11.74,3.46-23.92,5.18-35.64,8.21-7,1.85-14.37,1.92-21.39,4.09a163.07,163.07,0,0,0-20.05,7.64c-6.3,2.87-13,5.75-19.49,8-4.23,1.45-9.1,2.11-12.79,4.75-2,1.4-3.92,4.07-6.73,2.64-1.52-.79-3-4-3.69-5.43-2.31-4.59-4.92-10.07-4.92-15.25,0-9.32-1.94-25,9.17-28.84a105.6,105.6,0,0,1,18.89-4.68c6.53-1,11.28-3.86,16.89-6.86,1.35-.76,3.37-2.28,4.94-2.09s2.31,1.78,4.29,1.89,3.66-2,5.37-1.65c1,.17,1.08,1.25,2.05,1.69a5.72,5.72,0,0,0,3,0c5.47-.9,10.15-4.65,15-7.08,3.62-1.82,7-4.06,10.42-6.2,2.7-1.72,5.21-4.16,8.5-3,4.39,1.62,7.76,5.11,12,7.19,3.65,1.78,9.79,2.11,13.39.16,1.64-.91,1.94-1.84,3.95-2,2.51-.23,3.73,1.28,5.9,1.68,3.83.66,9-3.3,11.34-5.83,3.22-3.42,5.55-7.42,8.78-10.69,2.7-2.76,5.7-8.64,10-7.41s6.59,6.45,11.53,5.76c3.74-.5,6.8-3.33,9.91-5.18,1.93-1.18,3.28-2.63,4.75-.16,1,1.68.59,5.37,3.49,3.73,1.91-1.12,2.54-3.33,4.88-4.09s3.4-.19,5.05,1c4.15,2.92,10.61-.08,14.8-2.08,3.79-1.85,7.58-3.75,11.18-5.93,5.18-3.13,10.19-6.1,15.2-9.49,13.81-9.3,27.29-19.07,40.94-28.53,4.95-3.42,10-6.65,14.48-10.59,3.46-3,7.56-6.23,11.93-7.61,6.42-2.08,11.21,2.6,17.1,3.46s11.39-.1,17.19-.75a63.15,63.15,0,0,0,16.68-4c5.57-2.31,11.34-4.28,16.81-7,5.64-2.77,11-5.75,17.08-7.52,4.32-1.25,8.27-2.34,12-4.84,1.68-1.16,4.05-2.22,6-1.19,1.48.75.42,1.88,2.24,1.15.53-.24,1.28-1.44,1.72-1.81,3.91-3.57,8.67-6.66,13-9.79,2.67-2,5.38-3.83,8.24-5.51,2.25-1.32,5.09-2.25,7.16-3.75,3.36-2.54,4.61-7.09,8.67-8.84,4.65-2,7.78,2.14,11.31,4.61a53.91,53.91,0,0,0,4.32,3.23c2.1,1.16,4.35,1.09,2.63-1.58-.92-1.45-2.8-2.6-4.18-3.53-1.94-1.28-5.42-2.17-6.9-4-2.54-3,.19-9.07,3.49-10.26,4.32-1.55,6.73.74,8.31,4.48,1.08,2.61,4.45,10.46,7.94,9.66.42-2.2-1.81-5.5-2.87-7.35-1.55-2.76-3.46-5.34-4.94-8.14-2.6-4.94-2-9.73-.57-14.93,1.25-4.55,7.45-3.73,11.06-2.75,2.3.66,4.31,1.69,6.61,2.15a48.71,48.71,0,0,0,9.13.57,16.15,16.15,0,0,0,7.72-1.92c3.17-1.65,6.54-3,9.49-5.11,4.73-3.26,9.93-6.2,12.21-11.71.79-1.91.42-4.31,2.67-5s4.68,1.9,5.31,3.86c1.51,4.75-.92,6.57-3.9,9.54-2.76,2.8-6.73,7.15-8,10.94-.58,1.88,0,4-.23,5.93s-1.06,3.13-1.84,4.75c-1,2.06-.87,4.12-.83,6.41,0,1.32,0,6.72,1.82,4.93.94-.91.78-4.75,1-6,.42-2.14.42-4.68,1.06-6.75.69-2.41,2.91-3.83,4.39-5.77,1.75-2.3,2.87-5.43,4.25-8.05a31.36,31.36,0,0,1,5.34-6.91c2.28-2.38,5-4.81,6.14-8,1.41-3.86-1.52-4.08-3.07-7-1.45-2.71,2.37-4,4.15-5.18,3-2,5.44-3.86,6.4-7.39.75-2.71.95-4.92,2.44-7.22a68.74,68.74,0,0,1,4.55-6.21c1.65-2,2.87-3,5.58-2.43,2.5.49,5.08,1.61,7.61,2.24,4.78,1.16,8.38,3.53,10.62,7.92,2.37,4.58-1.26,10.56-3.5,14.74-3,5.58-3.76,12.3-8,17.11s-10.56,5.14-15.37,8.67c-2.3,1.72-3.89,4.28-1.94,7.06,1.65,2.31,5.18,2.5,7.82,2,6.36-1.22,5.14-6.79,7.94-11.14a7,7,0,0,1,4.48-2.71c2.71-.32,2.58,1.49,3.33,3.53,1.51,4,4.51,8.09,6.75,11.54,1.12,1.75,1.65.9,3.53-.16a39.42,39.42,0,0,1,4.72-2.68c4.08-1.51,4.75,4.62,9.26,3.83.42-5.18-5.09-4.6-6.62-8.6-1.39-3.53.58-8.34.26-12.07a29.18,29.18,0,0,0-1.65-6.7c-.83-2.21-2.18-3.89-1.65-6.39.7-3.54.63-7.36,1.39-10.78.66-2.93,3.73-5.18,2.7-8.58-1.18-4.12-7.35-6.43-10.58-8.8-1.51-1.15-4.19-3.1-4.81-5-.49-1.52,0-4,0-5.58,0-4.81,2.47-4.72,6.78-4.72,3.53,0,7.32.59,10.78,0,2.81-.46,6.43-3.5,9-1,2.75,2.58,2.34,6.57,6,8.87,3.42,2.15,10.06,2.09,12.75,5.25,3,3.47-3.89,8.18-3.69,11.58a5.5,5.5,0,0,1,.59-.14c2.76,0,5.86-7.21,7.58-9,2.14-2.22,5.11-3.46,8-4.58l0,.1c1.77.41,3.62,2.83,4.68,4.19,2,2.47,2.38,5.37,6,3.39,3-1.68,6.17-3.42,9-5.3,1.12-.75,1.94-1.68,3-2.51,2-1.55,4.77-2.6,7-3.95,1.75-1.06,4.94-3,7-1.56,3.82,2.8,6.43,7.36,8.31,11.68,2.08,4.8,4.06,10.25,7,14.7a101.54,101.54,0,0,0,7.75,10.45,28,28,0,0,0,3.56,3.66,9.82,9.82,0,0,0,2.21,1.69C797.56,914.78,798.94,914.71,799.17,914.84Z"/><path id="path14" class="cls-1" d="M766.38,745.18c.92,4.42,3.52,10.35,1.91,14.8-.92,2.51-2.67,4.78-4,7.09-.85,1.56-1.84,4.15-3.36,5.22-1.12.75-2.6.66-3.92.94A58.43,58.43,0,0,0,745.94,777c-7.06,3.1-13.62,7.16-20.47,10.65-6,3.07-12.3,6.59-17.51,11-2.39,2-4.65,4.18-7.09,6.12-2,1.61-4.84,3-5.1,5.71-.24,2.1,1.15,3.9,1.64,5.8a10.25,10.25,0,0,1-.42,6c-1.94,5.14-5.67,9.53-9.26,13.65-2.08,2.37-3.59,5-5.51,7.44-.49.63-1,1.25-1.44,1.89a34.65,34.65,0,0,0-4,5.79,12.38,12.38,0,0,1-8.22,6c-3,.54-5.67-.36-4.22-3.66,1.29-2.9,4.09-4.68,6.07-7.08,3.24-3.86,3.59-6.79,3.57-11.67a18.81,18.81,0,0,1,.82-6.14c.89-2.57,3.33-4.84,3.89-7.38.8-3.86-4.05-7.65-6.66-9.6-3.69-2.73-7.44-4.94-11.1-7.74-9.86-7.57-21.08-13-31.92-19-21.13-11.63-41.18-25.15-61.95-37.48-6.58-3.93-13.71-6.9-20.18-11.28s-12.33-9.39-18.72-13.75a121.25,121.25,0,0,1-18.73-15.66c-7.4-7.61-11.58-20.14-11.55-30.76,0-6.49,2.06-10.35,5-15.92,1.32-2.54,2.42-5.22,4.56-7.25,1.65-1.55,3.92-2.37,3.29-5.08l.2-8.1a17,17,0,0,1,4.09.42c2.58.58,4.94,1.61,7.58,1.94,4.58.59,9.2-.36,13.65-.56,4.6-.25,3.16,2,4.77,5.3s5.14,4.77,8.41,5.41c5,1,5.18-5.41,5.51-8.8.62-6.13,1.28-9.86,7.52-12.13,2.57-1,5.41-1.55,8-2.3a31,31,0,0,1,10.19-.86c5.18.2,10.49,1.88,15.66,2.51,5.48.65,10.82,1.88,16.26,2.46,9.16,1,19.39,3.67,27.49,8.09,4,2.18,7.88,4.55,11.71,7,3,1.91,5.7,4.55,8.9,6.16,3.5,1.72,7.56,2.18,11.25,3.83a32.28,32.28,0,0,1,10.61,6.91c2.11,2.25,4.09,5.67,6.74,7.19,3.66,2,8.2,1.92,12.2,2.8,3.39.75,5.63,2.87,8.47,4.75,3.4,2.25,6.91,4.28,10.15,6.78s6.73,4.2,9.09,7.45c2.09,2.87,2.93,6,5.47,8.54a20.38,20.38,0,0,1,3.66,5.39c.76,1.52,1.29,3.61,2.28,5.07a14,14,0,0,0-1.59,0c.26,1.07,1.25,1.85,2,2.75a42.5,42.5,0,0,0,7.61,7.61c3,2.17,6.36,4,8.84,6.69C761.46,734.33,765.12,739.14,766.38,745.18Z"/><path id="path10" class="cls-1" d="M922,221.42l9.32,61.13L903,334.9,824.93,364l13.19,53.38,2,153.31-8,15,0,41.71c1.51,2.94,2.67-1.65,2.34,5.09-.13,2.59-1.73,3.26-3.1,5.1-1.68,2.21-.62,5.09.37,7.45a25.77,25.77,0,0,0,4.35,7.19c1.85,1.84,1.88,4.09,3.46,6.23s3.46,2.22,3.13,5.15c-.13,1.22-.83,2.14-1.06,3.32a31.39,31.39,0,0,0,0,5.22,20.61,20.61,0,0,0,1.49,8.6c.82,1.78,2.43,2.75,1.55,4.91-.75,1.85-3.5,2.43-4.88,3.5-2.58,1.91-4.75,2.14-8,2.67-4,.66-7.23,2.1-10.92,3.53-5.71,2.17-12.1,1.41-17.74,3.66-5,2-9.33,5.14-11.58,10.12l1.61,1.25a13,13,0,0,0-1.31.79c-6.3,4.15-5.44,13.25-5.44,20,0,4.06,0,8.51-1.42,12.3a12.82,12.82,0,0,1-4.35,5.9c-2.09,1.55-6.17,4.59-8.88,4.29-2.5-.26-2.34-4.56-2.73-6.79-1-5.54-1.26-10-5.61-14.21-2.08-2-4.48-3.54-6.58-5.58-2.34-2.27-4.62-4.77-6.7-7.23-3-3.42-5.18-6.62-9.53-6.95-1-1.45-1.52-3.56-2.27-5.08a20.73,20.73,0,0,0-3.66-5.38c-2.54-2.54-3.4-5.68-5.47-8.54-2.38-3.27-6-5-9.09-7.46s-6.76-4.54-10.16-6.78c-2.83-1.89-5.08-4-8.47-4.75-4-.89-8.54-.78-12.2-2.8-2.63-1.51-4.61-4.93-6.73-7.19A32,32,0,0,0,671.94,658c-3.69-1.65-7.75-2.11-11.24-3.82-3.2-1.62-5.87-4.26-8.91-6.17-3.82-2.44-7.72-4.81-11.7-7-8.11-4.41-18.34-7.12-27.5-8.08-5.44-.58-10.78-1.81-16.25-2.47-5.18-.62-10.49-2.31-15.66-2.51a31.52,31.52,0,0,0-10.2.86c-2.63.76-5.47,1.36-8,2.31-6.24,2.27-6.9,6-7.52,12.13-.33,3.4-.49,9.76-5.51,8.8-3.25-.63-6.75-2.18-8.41-5.41s-.16-5.55-4.78-5.31c-4.44.2-9.07,1.16-13.64.56-2.64-.32-5-1.35-7.59-1.93a17,17,0,0,0-4.08-.43c-1.12-.07-2.25,0-3.38,0-7.27,0-15,.66-22.25-.41a19.9,19.9,0,0,1-9.86-3.69c-2.41-1.75-5.3-4-8.41-3.73-.24,4.69,1.25,8.93,2.63,13.36,1.32,4.18,3.46,8.11,5,12.16,1.42,3.86,2.43,8.05,3.5,12,1.84,7.13,5.3,14.61,5.54,22,.16,4.06-2.31,6.66-4.52,9.73l-.46.46c-2.05-2.09-4.06-4-5-7-1.49-4.65-3.5-9.13-5.18-13.56-1.91-4.94.26-11.44-1.94-15.9-1.85-3.75-3.2.79-3.33,3.24-.2,3.26.66,6.12,1.42,9.12,1.78,7,4.75,13.25,4.35,20.72-.4,7.22-5.21,3.53-9.3,7.41-4.47,4.32,6.41,5.31,9,2.68,1.42-1.42,3.1-5.68,4.39-1.13a3.51,3.51,0,0,1-2.47,4.68c-1,.27-2.3.08-3.3.27s-1.91.89-2.79,1.06a10.32,10.32,0,0,1-6.82-1c-4.12-2.38-4.45-8.18-5.25-12.7-.86-4.93-1.06-9.62-2.44-14.27-1.28-4.25-2.08-8.6-4.36-12.66-1.21-2.21-2.37-3.45-2.53-6.09a67.29,67.29,0,0,1,.07-10.72c.23-2.41,1.42-5.17,1.06-7.61-.5-3.17-3.08-3-4.12,0-.92,2.58-.2,6.4.26,9,.89,4.94,1.58,10,2.27,15a256.92,256.92,0,0,0,5.57,28.88c1.19,4.72,1.32,9.36,2.35,14a15,15,0,0,1-.33,7c-.63,2.17-1.12,2.14-2.77,3.82a12.9,12.9,0,0,0-2.67,4.76c-.69,1.74-.66,3.45-2.76,3.56-1.68.09-2.55-1.45-3.5-2.54-2-2.28-3.57-5.09-6.95-5.14-3.73-.1-7.65,1.84-11.05,3.09-4.91,1.8-9.17,5.67-13.89,1.28-3.72-3.46-8-7.92-10.41-12.37-3.17-5.8.91-8.77,5.67-11.54,2.9-1.68,4.41-2.77,3.53-6.37-.69-2.79-2.15-4.27-4.95-2.76-2,1.06-3,3.86-4.68,5.21-2.13,1.72-3.56.79-5.77-.45-4.22-2.42-5.1-6-7.91-9.63-4.59-6.07-12.76-16-21.13-17.34-1-2.64.78-5.64-2.41-7.32-1-.52-4.29-1.06-4.72-2.17-.49-1.4,2.14-2.81,3.09-3.2,1.84-.79,4.07-.7,5.91-1.65,1.58-.85,2.64-2.67,4.08-3.76s2.77-1.91,4.58-1.64,2.32.89,4.09.16c4.12-1.68,2.67-6.46-.16-8.61-1.69-1.32-4.52-1.91-3.76-4.54.3-1,2.51-3.43,3.4-3.67,1.94-.52,2.34,1.86,4.07,2.44,1.51.53,5.13-.32,6.07-1.58,2.14-3-3-9.76-3.37-13.09-.24-2.17-.07-4.42-.82-6.52a47.26,47.26,0,0,0-2.64-5.28,16.16,16.16,0,0,1-1.91-6.1c0-2.24.95-4,.85-6.39-.09-1.85-.56-4.66-2.83-3.43-1.42.75-2.1,3.37-3.17,4.59-3.09,3.69-4.18-1.82-4.41-4.25-.33-3.76-.86-8.27-2.4-11.77a22.19,22.19,0,0,1-2-8.57c-.24-3.9,0-10.78-4.35-12.57-2.11-.9-2.64-.23-2.68-3.13,0-1.86.37-4.12-.46-5.77-1.15-2.34-2.76-1.64-4.94-1.84-1.45-.13-1.38.13-2.17-.93-.59-.78-.8-2.67-.93-3.66-.58-4.68-.89-9.16-2.21-13.71-1.48-5.18-1.77-10.48-2.93-15.7-.95-4.44-2.87-8.7-3.53-13.15a72.93,72.93,0,0,1-.33-10.35c0-3,.33-6.33-3.49-6.41-2.51-.06-5.54,1.86-7.88,2.64-4.61,1.51-9.92,2.54-14.09,5.21a55.51,55.51,0,0,0-9.79,7.59c-3.72,3.86-6.16,8.37-10.54,11.57a68.81,68.81,0,0,0-6.21,4.52,53.16,53.16,0,0,1-7.45,6.13c-2.93,1.92-6,3.76-8.25,6.5-1.88,2.24-2.34,4.41-5.3,5.58a36.27,36.27,0,0,0-6.13,2.57c-1.45.92-2.87,4.12-4.19,4.61s-1.61-.75-2.22-1.88a47.43,47.43,0,0,1-3.32-8.25c-1.36.17-1.61,2.15-2.43,3.09s-2.11,1.59-2.68,2.88c-.9,2.08-.73,8-4.28,7.58-1.12-1.75-1.88-3.73-3.13-5.54-1.52-2.27-3.83-3.75-5.38-5.94a21.82,21.82,0,0,1-3-6.45c-.24-.85.16-1.92-.41-2.67s-2.21-1-3.09-1.56c-1.81-1.18-1.81-2-.32-3.78s1.48-1.78.89-4.09-1.16-2.59-3.1-4.11c-1.44-1.12-3.09-3.24-1.39-4.91s3.76-.69,1.25-3.17a23.11,23.11,0,0,0-4.19-3.63c-1.88-1.08-3.82-2-5.7-3.13-2.38-1.38-5.11-1.84-7.45-3.12-1.08-4.86,10-5.88,6.26-9.63-3.5-3.56-8.64-5.55-12.23-9.07-2-1.94-3.3-4.06-6-5.1-1.92-.76-8.84-1.26-9.57-3.5-.33-1.06,2.34-2.44,3.29-3.2,1.32-1.06,4.32-1.59,4.4-3.26,0-.82-1.73-3.13-2.48-3.66-1.39-1-3.59-.56-5.17-.86s-5.48-1.75-3.27-3.79c1.39-1.27,7.89-.56,7-4-4-.2-5,.57-7.64-2.91-1.65-2.18-2.77-4.14-4.78-6-1.29-1.15-3-3.36-4.52-4.09-2-1-4.06-.23-6-1.88-1.32-1.12-2.51-2.21-3.92-3.23-3.1-2.28-5.8-4.85-9.2-6.76-2.31-1.29-3.36-2.74-.63-3.86,1.42-.56,5.11-.66,4.76-2.83-.26-1.58-3.21-2.11-3.74-3.69-.58-1.81.5-4.09-.36-5.84s-2.91-2.6-4.16-3.82c-1.58-1.52-2.14-3.43-3.52-5-1.19-1.39-3.43-1.59-4.53-3.07a5.2,5.2,0,0,1,0-5.15c1.53-2.11,5.11-1.32,6.7-3.52a3.9,3.9,0,0,0-.86-5.28c-1.94-1.29-3.39-.92-3-4,.29-2.11.62-3.37,0-5.61-.33-1.18-.63-2.4-.95-3.59-2.54-9.43-5.18-19.58-11.31-27.4a21.79,21.79,0,0,0-11.11-7.94c-2.66-.76-5.43-.73-8.14-1.16-3.59-.56-6.89-2.11-10.25-3.52-2.68-1.13-4.82-2-6.66-4.39-3.87-5-6.7-10.81-9.87-16.22-1.87-3.14-3.52-7.25-6.36-9.66a54.84,54.84,0,0,0-8.74-5.77c-7.09-4-14.17-9.2-21.79-12.07-9-3.43-17.8-.1-25.35,5.11-3.47,2.37-6.7,3.39-10.52,4.88-2.55,1-6.17,3.85-9.08,4.12,0-5.57.4-11.11.83-16,.92-10.25,6.69-21.33,12.4-29.87,3-4.52,7.52-7.38,10.92-11.54,4-4.94,7.06-11.25,10.08-16.85,2.91-5.34,6.37-10.45,9.5-15.63,2.26-3.79,2.76-8.6,5.41-12.16,3.07-4.19,6.92-7.62,9.72-12.27,5.91-9.79,10.2-21,18.54-29.05,4-3.89,30.09-10.78,20.41-18.1-5.11-3.89-11.27-6.13-11-12.33a12.26,12.26,0,0,1,1.07-4.38c1.15-2.81,4.31-4.62,6.12-7.12,2.75-3.86,1.06-6.53,2.06-10.68,2.43-10.46,12,2.47,14.7,5.44,5.92,6.56,12.5-1.32,17.44-4.65.73-.5,1.44-1,2.21-1.45,11.18-7.06,24.37-12.86,30.75-24.5,1.89-3.39,2.35-7.48,4.26-10.72,1.75-3,5-4.87,8.1-6.49a28.77,28.77,0,0,0,7.85-6.2c1.94-2.17,3.07-6,5.09-7.88,3.95-3.72,10.48.9,14.27,4.09,4.75,4,5.57,9.23,9.49,13.61,1.72,2,4.52,3.83,5.88.4,1.21-3.07-1.79-3.42-3-5.67-3.41-6.4,3.78-6.69,7.84-4.32,4.35,2.5,8.54,5.41,13.08,7.81s8.59,5.25,5.35,10.85c-4.12,7.22-15.07,5.5-21.37,9.36-4.38,2.71-12.92,16-7.38,20.71,3.41,2.9,5.92-1.62,6.48-4.95.8-4.48,0-5.77,4.25-8.14,6.5-3.63,14.31-8.44,20.15-2.25a51,51,0,0,0,9.1,8.21c2.87,2,9,4.45,7,9.2-1.44,3.53-3.52,2.31-3.69,7,0,.36-.07.79-.13,1.25L247.18,104l-10.84,10.68s12,12,14,14.21l9.36-1.52.07-.23a14.17,14.17,0,0,0,4.94.37c0,5.47-.13,10.81,1.19,16.19a86.48,86.48,0,0,0,2.75,8.76c.78,2.21,1.11,5.87,3.32,7.19,2.76,1.59,6.09-.85,8.21-2.57a92.58,92.58,0,0,1,8.84-6.75c6.59-4.22,13.45-8.34,20.34-12.1,2.31-1.25,4.72-3,7.32-3.37,3.1-.39,4.52,1.19,7,2.67a81.79,81.79,0,0,0,7.59,4.29c1.91.92,3.75,2.9,6,2.74,2.71-.2,2.74-2.31,3.62-4.52,1.12-2.77,1.95-2.67,3.79,0,3.41,4.78,4.36,10.68,8.21,15.23a24.14,24.14,0,0,0,2.81,3.17c-1.29,8.11,10.91,18,15.69,21.95,8.18,6.73,20.38,16.89,30.86,9.6,7.32-5.08,15.95-7.45,23.27-12.56,2.55-1.82,9.47-8.18,8.31-11.81-.92-2.9-4.19-1.78-6.53-2.34-4.61-1.15-8.83-4.65-13-6.79-4.81-2.41-7.19-4.78-9.24-9.46-1.41-3.24-4.22-9.73-4.16-13.19s1.62-3.07,3.41-5.28c1.28-1.58,1.68-3.59,2.67-5.44,2.14-4,6.26-8.67,3.86-13.61-1.32-2.71-5.14-3.24-6.63-6C400.73,97,411.77,87.81,399.77,86c-5.46-.82-9.45,3-14.43,2.08-4.06-.72-7.45-4.42-10.29-7.12-2.56-2.47-6-6-4.25-10.19,1.49-3.56,6.54-3.33,9.5-4.65,3.47-1.51,7-4.25,10.32-6.2,3-1.74,5.21-3.29,4.94-7.28-.5-7.15-11-9.92-7.85-18.89,1.25-3.53,4.4-5.37,8.28-3.5,4.44,2.18,4.48,5.21,10.25,4.65a26.18,26.18,0,0,0,9.07-2.47c3.07-1.72,4.36-5.25,7-7.49,2.54,1.75,1.49,5.44,5.28,4.92,2.7-.4,3.69-3.73,4.51-5.77,2-5,5.09-11.51,10.89-5.31,2.37,2.5,1.65,6,3.13,8.8,1.39,2.58,4.19,3.89,5.54,6.5s2,5.64-.26,7.75-5-.23-4.78,4.22c.17,2.66,4,6.13,5.38,8.4,2.37,3.93,4.25,6.93,9.07,4.06,3.82-2.27,4-6.66,5.67-10.09s5.77-5.47,8.75-8.24c2.7-2.54,6.39-5.15,5.4-9.36s-5.26-3.07-6.72-6.63c-1.92-4.65,2.9-4.42,5.43-5.77,2.31-1.25,4.42-6,7.36-5.71,1,5.38,7.08.27,9.17-1.61,5.17-4.78,8.59-11.94,16.05-8.84C516.39,4,520.74,7.5,524,10.56c2.58,2.38,4,8.34,7.52,8.25,4.06-.1,2.77-6.3,7.45-4.42,3.16,1.29,2.57,5.54,5.24,7.42,4.81,3.42,4.56-1.52,7.92-2.61,4.31-1.38,4.35,4.65,4.19,7.39,4.41.92,4.64-1.95,6.95-4.69,3.13-3.72,6.58-2.89,11.05-1.91,5,1.09,9,4.82,13.91,6.27,4.48,1.35,8.91-.5,11.84,4.41,2.5,4.22-.62,3.83-1.78,7.52-2.44,7.62,6.92,9,12,9.89,12.26,2.18,37.68,7.45,38.67-11.6.33-6.13-2.8-4.39-5.76-7.35-2.48-2.48-.42-6.47,2.8-8.38,5.63-3.3,17.83-1.58,21.86,3.92,2.76,3.83,4.72,8.41,7.61,12.2a45.44,45.44,0,0,1,8.11,15.37c1.05,3.49,2.18,7.61-.92,10.25-1.61,1.35-8.31,1.58-7.92,4.55.17,1.22,4.94,3.1,5.93,4.09,2.58,2.51,4.25,6.07,5.67,9.26,4.89,10.88,7.26,22.19,11.54,33.07,3.76,9.4,10.69,16.79,17.11,24.47,5.14,6.13,10,12.59,16.28,17.54,3.76,2.93,6.92,4.68,8.25-1.09a20.18,20.18,0,0,0,.09-7.39c-.56-2.54-1.18-1.94-2.46-3.69-2.31-3.13-2.6-6.19,1.25-9.07s6.23-.59,5.43-6.29c-.62-4.25-3.2-6.53-5-10.29s-1.19-6.13.4-9.82c2.71-6.2,2.77-14.71,7.32-20.28,7.92-9.59,11.77,5.74,17.84,1.78,0,0,.07,0,.09-.07Z"/><path id="path58" class="cls-1" d="M383.89,152.74c.76,1.16,3.13,3.27,2.88,4.52-.43,2.44-2.39,1.58-3.63.82-2.44-1.45-3.92-6-6.7-8.11s-6-3-9.26-1.68c-2.5,1-8.24,4.42-9.89,6.5a7.48,7.48,0,0,0-1.61,3.59,23.43,23.43,0,0,1-2.81-3.17c-3.85-4.55-4.81-10.45-8.2-15.23-1.85-2.67-2.68-2.77-3.8,0-.89,2.21-.91,4.32-3.61,4.51-2.25.17-4.09-1.81-6-2.73a81.93,81.93,0,0,1-7.58-4.29c-2.51-1.48-3.92-3.07-7-2.67-2.6.34-5,2.11-7.31,3.37-6.9,3.75-13.76,7.88-20.35,12.1a94.26,94.26,0,0,0-8.84,6.75c-2.1,1.72-5.43,4.16-8.21,2.57-2.21-1.32-2.54-5-3.33-7.18a87.42,87.42,0,0,1-2.74-8.77c-1.32-5.38-1.19-10.72-1.19-16.19a38,38,0,0,0,11.31-2.8c10.32-4.39-1.94-15.4,0-23.41,1.19-4.78,5.38-4.09,9.91-4.55,6.58-.66,12.41-1.52,18.54-4.13,9.9-4.18,17.41.37,26.14,5a170.34,170.34,0,0,1,18,10.22c4.84,3.3,8.74,7.65,13.28,11.21,5.87,4.61,23.11,8,18.37,17.64-2,4-5.43,3.09-2.42,7.48C379.83,147,381.88,149.71,383.89,152.74Z"/><path id="path22" class="cls-1" d="M647.72,857.34c1.88,1.78,4.84,4.29,4.55,7.08-.23,2.19-2,3.21-3.7,4.53-5.47,4.25-10.91,8.26-16.27,12.69-5.92,4.82-13.89,8.35-18,14.84-1.11,1.75-3.66,6-6.45,4.65a3.49,3.49,0,0,1-1.65-2.55,16,16,0,0,1-.24-3.29c0-4.28-.82-6.33-3.91-9.43-2.09-2-5.25-5.57-8.25-6.3-4.36-1.11-17.55,2.64-17.74-4.54a13.06,13.06,0,0,1,2.24-6.89c1.65-2.77,3.79-5.42,5-7.82,2.08-4,4-7.92,5.76-12a32.9,32.9,0,0,1,6.54-9.66c2-2.26,3.29-5.26,4.58-8a16.14,16.14,0,0,0,1.65-4.92c.09-.91-.69-2.76,1-2.53,1.42.19,1.85,3.73,2.59,4.68,1.55,2,5.09,2.63,7.44,1.75.69-3.43-8.08-3.3-6.75-8.6,1.52-6,7.32-1.78,10.06.46,1.91,1.55,3.26,1.58,5.58,2.21,1.85.49,2.9,2.25,4.05,3.56s2.87,2.74,4.12,4.23c1.92,2.21,3,4.94,4.36,7.44,1.55,2.84,3,5.71,4.68,8.44A48.54,48.54,0,0,0,647.72,857.34Z"/><path id="path28" class="cls-1" d="M602.61,902.81c.33,3.41-1.36,6.62-3.1,9.36-2.08,3.26-5.6,2.7-9,3.82-2.63.89-5.3,2.77-8.14,2.87s-5.57-2.07-8.24-3.07c-5.25-2-9.79-7.25-10.29-13.06a9.46,9.46,0,0,1,.53-4.11c1.61-4.42,6.2-7.68,10-10.42,2.15-1.58,4.62-3.16,7.4-3.09,5,0,10.48,2.84,14,6.45,2.35,2.42,4.75,5,6,8.06A10.55,10.55,0,0,1,602.61,902.81Z"/><path id="path30" class="cls-1" d="M596.41,807.19c.07,1.29-.89,1.16-1.64,1.92-1.39,1.35-1.75,3.25-3.13,4.42-1.78,1.48-4,1.12-6.13,1.51-1.85.33-6.14,2-3.63,4.12,1.89,1.58,6.2.76,8.54,1.26.17,1.88-3.25,4.14-4.48,5.37-2.25,2.24-2.18,4.58-2.46,7.55-.21,1.69.16,3.37,0,5-.21,1.95-.3,2.31-1.73,1.06-2.17-1.91-3.07-6.78-6.92-6-.39,1.92,1.46,2.91,2.64,4.16,2.24,2.27,1.75,4.55,1.25,7.55a159.66,159.66,0,0,1-4.55,19,25.78,25.78,0,0,1-1.18,3.4c-.9,2-2.22,3.89-4.16,4.15-3.36.49-3.09-3.66-3.09-5.93a27.93,27.93,0,0,0-1.19-8.38c-1.12-3.83-5-6-6.07-9.92-.59-2.17-.46-4.25-1.45-6.46s-2.54-4-3.83-6.08c-2.67-4.47-4.25-8.62-1.31-13.35,2.6-4.25,8.11-5.38,11.34-9.23,3.57-4.29,5.75-9.4,10.91-12.17,4.19-2.27,9-1.12,13,.89a63.85,63.85,0,0,1,6.13,3.21C594.27,804.88,596.38,805.78,596.41,807.19Z"/><path id="path32" class="cls-1" d="M552.73,892.49c3.57,0,5.77,1.74,4.58,5.57a9.17,9.17,0,0,1-3.49,5.18,12.38,12.38,0,0,0-2.37,1.58c-.57.63-.7,1.62-1.32,2.11-1.59,1.19-4.76.4-5.44-1.45-.53-1.42.42-3.59,1-4.75,1-2.05,4.22-7.42,7-8.34Z"/><path id="path34" class="cls-1" d="M549.43,855.42c.09,2.27-1.49,3.73-3.69,2.6-3.63-1.78-5.74-7.19-6.83-10.75-.86-2.88-1.61-5.74-2.59-8.58-.9-2.51-2.28-4-3.83-6.13-1.12-1.52-1.28-3.26-2.22-4.77-.82-1.32-3.39-2.44-2.83-4.29,1.32-.82,2.18-.66,2.41-2.31a7.8,7.8,0,0,0-1-4c-.95-2-3.69-3.82-4.39-5.93-1.65-5,8,.33,7.06-3.92-.45-2.14-2.84-2.17-4.39-3s-2.08-2-3-3.37-2.64-2.34-3.57-3.72c-.13-.21-.26-.41-.37-.63-.85-1.85-.39-5.54-.25-7.58.23-2.57.3-7,2.8-8.6,3.16-2.11,7.44,1.52,9,4.22,1.85,3.23,4.91,6,6.57,9.33,2.34,4.72,1.31,10.55,3.69,15.3,2.14,4.22,3.09,7.52.49,11.57a8.9,8.9,0,0,1-.49.76c-3.26,4.52-2.25,8.8-1.49,13.94.86,5.84,2.22,11.17,6.3,15.66C548.05,852.59,549.36,853.55,549.43,855.42Z"/><path id="path36" class="cls-1" d="M547.09,923.61c1.28,1.22-.13,4.94-.33,6.56-.46,3.93.4,13.22-4.68,13.85-4.86.59-7.56-5.34-9.79-8.67-2.44-3.63-7.94-10.32-7.19-15.75a6.19,6.19,0,0,1,1.19-3c1.77-2.44,4.81-3.76,7-5.8,1.15-1.16,2.09-3.14,3.86-3.34a5.16,5.16,0,0,1,.66,0c6,0,3.33,9.92,4.28,13.28S545.14,921.76,547.09,923.61Z"/><path id="path38" class="cls-1" d="M525.3,865.52c2,1.45,9.49-1.42,8.9,4.12-.5,4.61-8.08,0-8.31,4-.07,1.77,1.48,3.36,1.28,5.29-.29,2.88-1.61,1.2-3.23,2.31-1.12.79-1.56,5.58-.85,6.76,1.58,2.7,6.69,1.38,8.62,4,3.43,4.61-1.22,8.6-4.55,10.85-2.27,1.55-4.58,3.49-5.76,6.06-1.06,2.23-.92,5.36-1.28,7.76-.1.75-.27,1.48-.43,2.21-.56,2.17-1.35,4.25-1.75,6.4a26.15,26.15,0,0,0,.2,6.67c.3,3.75,1.22,10.05-1.09,13.27-1.55,2.14-4.55,2.8-6.56,4.35-2.84,2.25-5.05,5.34-8,7.45a38.83,38.83,0,0,1-7.11,3.86,4.18,4.18,0,0,1-5.14-1.11c-1.07-1.26-1.73-5.25-3.46-5.44-2.26-.24-2.71,4-4.16,5.24-3.43,2.91-9.56-.91-12.89-1.91-3.76-1.15-11.71-2.15-10.16-8.27,1.19-4.66,6.09-5.51,10.12-6.63a14,14,0,0,0,5.14-3c2.11-1.69,4-1.94,6.59-2.34,3.23-.5,6.58-1,9.86-1.39.07,1.39-.33,3.3.63,4.45,1.55,1.88,2.21.4,3.25-.79a9.38,9.38,0,0,1,4.35-3.07c1.76-.57,3.53-1,3.74-3.09.36-3.59-4.82-1.92-5.77-5.15-.82-2.76,3.07-6,4.52-8.08,2.57-3.73,3.26-7.68.36-11.44-3.39-4.51-.09-8,4.55-9.79,1.73-.61,4.69-2.37,2.51-4.27-1.72-1.45-4.88.41-6.79-.43s-2.3-4.52-3-6.36c-1-2.77-2.31-5.42-3.53-8-1.28-2.8-3.66-5.22-4.32-8.25-.42-1.78.37-5-1-6.13-2,2.47-2.81,10.36-6.79,8.11-3.43-1.95-5.25-6.83-7.61-9.83-3.76-4.68-7.92.69-10.28,4.29-1.89,2.83-2,6.33-3.59,9.13-1.06,1.77-4,6.33-6.17,6.16-3.69-.26-3.91-5.71-4-8.41,0-1.72.36-3.66.09-5.38-.33-2.37-2.51-4.25-4.11-6.13-1.95-2.26-3.86-2.18-6.53-3.5-3-1.48-1.06-3.85-.29-6,.55-1.65.62-3.66,2.92-2.9,1.09.36.95,1.47,2.75,1.64a6.94,6.94,0,0,0,2.59-.23c2.08-.6,4-1.82,3.92-4.09-.07-4.42-6.86-4.64-4.75-9.82a137.25,137.25,0,0,0,5.42-14.44c.65-2.34,1-5,1.84-7.25.95-2.41,2.9-3.36,4.49-5.18,1.35-1.44,2.17-3.72.89-5.34-1.16-1.44-5.31-.75-5-2.9.27-1.71,3.24-1.71,4.36-2.42,3.2-1.93,3.4-7.15,5-10.15s3.58-5,3.46-8.67c-.1-2.79-1.2-4.39-2.22-6.92-1.19-2.83-1.58-5.83-2.87-8.57a45.81,45.81,0,0,0-4.08-7.39c-1.48-2.11-2.28-3-1-5.38,1.09-1.91,3.33-4.06,5.44-4.48,2.54-.53,4.52,2,6.33,3.4,3,2.38,4.41,5.21,6.13,8.58,1.28,2.5,2.6,5.73,6,5.34,1.89-.2,4.75-.89,6.21-2,1.71-1.41,6.23-6.09,5.37-8.47-.24-.62-1.35-1-1.64-1.61a10.62,10.62,0,0,1,0-2.87c.13-2.51,1-5.51,3.29-6.83,2.91,3.37,2.77,7.29,3.07,11.54a15.45,15.45,0,0,0,2.09,7.19c1.25,1.82,3.06,3.08,4.38,4.75a35.08,35.08,0,0,0,3.3,4.06c1.12,1.08,3,3,1.81,4.75-.86,1.25-4.26,1.82-5.6,2.64-.89.49-2.61,1.08-2.68,2.18,0,.82,1.79,3.25,2.25,4a10.45,10.45,0,0,0,5.88,5c3.19,1.31,4.6,4,6.73,6.85,1.35,1.72,3.29,4.61,1.61,6.75-1,1.26-4.65,1-3.86,3.33.32,1.07,2.05.83,2.9,1.45a6.66,6.66,0,0,1,1.46,2c1.18,1.72,2.66,3,3.45,4.94.56,1.36,1.25,4.32.62,5.77-.75,1.8-2.9,1.35-4.52,1s-10.64-5.63-9.75-.49c.13.73,1.28,1.88,1.69,2.57a10.8,10.8,0,0,1,1.68,4.35c.2,1.89-.46,5.42,1.22,6.8,1.45,1.15,2.67-.33,3.66-1.52,1.56-1.85,2.44-1.92,5-1.81a9.18,9.18,0,0,1,6.08,2.73c2,2.06,1.16,3.76.29,6.13-1.14,3.17-2.5,5.87-6,6.76-1.71.46-6.56,0-6.94,1.92-.27,1.15.72,1.45,1.22,2.31a36.36,36.36,0,0,1,1.44,3.65,16.38,16.38,0,0,0,3.5,5.11C523.26,862.85,524.08,864.66,525.3,865.52Z"/><path id="path44" class="cls-1" d="M473,970.42c.39,6.59-4.94,9.73-9.14,14-3.72,3.79-7.75,4.06-12.82,4s-5.18-5.18-6.53-9c-1-2.8-1.42-4.23-.56-7.19.72-2.41,1.58-6-.3-8.21-1.39-1.62-4.39-1.88-5.67.06-.92,1.42.23,3.63.16,5.11-.06,2-.89,2.31-2.63,3.26-1.08.62-2.74,1-3.73,1.72-1.31.92-1.72,3.2-3.1,3.46-4.88.92-13-6.43-10.35-11.18,2.8-5.08,6.37-9.33,11.6-11.71a42.42,42.42,0,0,0,9.3-6.13c2.05-1.68,3.53-2.13,6-1.11,5.87,2.41,7.39,10.22,12.7,13.55C462.19,963.7,472.61,964,473,970.42Z"/></g></g></svg>