<?xml version="1.0" encoding="utf-8"?>
<!-- Generator: Adobe Illustrator 22.0.1, SVG Export Plug-In . SVG Version: 6.00 Build 0)  -->
<svg version="1.1"
	 id="NYC" inkscape:version="0.47 r22583" sodipodi:docname="New_York_City_location_Manhattan.svg" xmlns:cc="http://creativecommons.org/ns#" xmlns:dc="http://purl.org/dc/elements/1.1/" xmlns:inkscape="http://www.inkscape.org/namespaces/inkscape" xmlns:rdf="http://www.w3.org/1999/02/22-rdf-syntax-ns#" xmlns:sodipodi="http://sodipodi.sourceforge.net/DTD/sodipodi-0.dtd" xmlns:svg="http://www.w3.org/2000/svg"
	 xmlns="http://www.w3.org/2000/svg" xmlns:xlink="http://www.w3.org/1999/xlink" x="0px" y="0px" viewBox="0 0 731.4 720.3"
	 style="enable-background:new 0 0 731.4 720.3;" xml:space="preserve">
<style type="text/css">
	.st0{fill:#2F56A6;stroke:#2F56A6;stroke-width:3;stroke-miterlimit:10;}
</style>
<defs>
	
	
		<inkscape:perspective  id="perspective144" inkscape:persp3d-origin="250 : 164.8 : 1" inkscape:vp_x="0 : 247.2 : 1" inkscape:vp_y="0 : 1000 : 0" inkscape:vp_z="500 : 247.2 : 1" sodipodi:type="inkscape:persp3d">
		</inkscape:perspective>
</defs>
<g id="Straten_Island">
	<path id="path102" class="st0" d="M719.2,204.7c3.1,2.4,10.8,3.7,10.7,8.6c-0.1,3.3-3.1,6.1-4.6,8.9c-1.3,2.4-2,4.9-2.9,7.6
		c-1.9,5.8-4,11.8-6.4,17.6c-1.8,4.2-4.6,8-7.1,12.1c-2.4,3.9-4.2,8.4-7,12.1c-3.4,4.6-10.7,7.2-15.4,10.5c-4.1,2.9-7.5,6-9.7,10.6
		c-2.1,4.3-4.1,8.2-7.3,11.9c-4.2,4.9-7.7,11.1-12.9,15c-18.3,13.8-33.3,31.5-49.1,47.9c-3.1,3.2-6.3,7.3-8.9,10.9
		c-2.4,3.3-4.8,6.9-8.2,9.3c-3.6,2.4-4.6,5.1-6.6,8.9c-2.1,4-4,7.8-6.9,11.5c-2.2,2.7-4.5,5.5-6.4,8.3c-1.3,2-2.7,5.3-4.9,6.2
		c-2.6,1.2-4.5-1.6-7.3-1c-3.8,0.9-4.8,4-5.7,7.1c-1.1,3.8-1.9,7.4-4.1,10.8c-2.1,3.4-4.7,6.5-6.6,9.9c-0.7,1.3-1.4,5.2-2.7,5.9
		c-3,1.7-2.9-3.4-3.7-5.2c-2.6-6.2-6,4.9-8,6.9c-4.9,4.7-9.3,8.9-12.6,15.1c-3.6,6.6-8.9,13.2-14.8,18c-3.2,2.7-6.6,5-10,7.4
		c-3,2.1-5.7,4.9-9.3,6c-3.8,1.2-5.9,1.4-9.1,3.9c-3.6,2.9-7.5,6.2-10.5,9.7c-10.1,12.2-16.5,27.2-28.3,37.9
		c-3.5,3.2-7.5,7.8-11.4,2.5c-3.1-4.2-8.6-10.4-10.1-15.4c-0.8-2.7,0.2-5.1,1.4-7.5c1.8-3.6,2.6-4.4,6.6-4.4
		c5.7,0,11.9,1.6,16.6-1.8c2.7-1.9,5.2-3.8,7.1-6.6c1.8-2.7,3.6-5.8,5.7-8.5c3.6-4.6,9.2-8.8,10-14.9c0.7-5.3-6.4-12.5-10.8-15.1
		c-4.2-2.4-10.1-5.3-14.7-2.4c-3.1,1.9-3.5,6.4-7.3,7.5c-4.6,1.4-10.9-1.1-10.9,5.8c0,2.8,0.1,4.6-2.5,5.5c-2.6,1-4.4,0.3-5.2,3.6
		c-0.4,1.8-0.9,6.2-0.2,8c0.8,2.3,2.9,3,3.2,5.5c0.7,4.8-2.2,6.8-5.2,9.6c-1.5,1.4-2.3,3.1-3.6,4.6c-0.4,0.4-1.4,0.7-1.8,1.1
		c-0.6,0.5-1.3,2.1-1.8,2.7c-1.8,2.4-3.8,4.6-5.5,7.1c-3.3,4.7-6.6,6-11.8,8.3c-7.2,3.1-14.5,5.7-21.3,9.7
		c-4.7,2.8-9.2,6.2-13.9,9.1c-5.4,3.4-10.4,7-15.3,11.1c-3.9,3.3-7.8,6.9-12.4,9.1c-2.7,1.3-5.8,2.1-7.9,4.2c-2.2,2.2-2.7,4.8-5,0.7
		c-1.6-2.9-2.2-5.1-5.9-4.8c-0.9,8.5-6.9,10.2-13,15.1c-2.1,1.7-4.1,4.2-6.9,4.7c-4.6,0.7-4.8-4.5-7.3-6.9c-2.2-2.1-6,0.1-8.5,2
		c-3.1,2.3-5.9,4.8-9.1,7c-3.5,2.5-7,4.7-8.9,8.6c-2.1,4.2-3.6,8.4-6.3,12.3c-3.4,4.8-13.7,21.9-21.1,19c-2.4-0.9-2.9-3.9-5.3-5
		c-2.9-1.4-6.6-0.7-9-3.3c-2-2.2,0-4.5-1.1-6.8c-1.8-3.8-3.6,0.7-4.9,2.3c-1.9,2.2-3.6,1.7-6.4,1.8c-8.8,0.4-15.4,2.5-22.1,8.3
		c-6,5.2-10.7,11.6-13.3,19.2c-2.4,6.9-7,10.1-12.9,14c-5.9,3.9-10.3,7.1-17.7,5c-3.4-1-7-1.8-8.8,1.9c-1,2-1.1,5.3-3.6,6.6
		c-5.8,2.8-9.2-6.1-12.9-7.4c-6.3-2.3-12.7,1.7-17.6,5.3c-2.4,1.8-4.9,3.5-7.4,5.1c-2.8,1.8-5.9,3.5-7.9,6c-2.4,3-4.6,6.3-7.4,8.9
		c-2.9,2.6-11.6,6.7-15.5,3.9c-1.6-1.1-1.1-8.5-4.3-6.7c-2.8,1.5-0.9,7.7-5.5,8.5c-4.4,0.8-7.3-6.7-9.5-9.3
		c-3.1-3.7-7.4-6.1-10.3-10c-3-4.1-4.7-9.4-6.9-13.9c-1.9-4-4.3-8.5-5.6-12.7c-1.1-3.6-1.5-10-0.5-13.6c1-3.6,4.9-3.9,6.7-6.9
		c2.1-3.5,1.6-8.9,1.8-12.9c0.2-4,1.9-6.2,4.8-8.8c2.8-2.6,5.8-4.9,8.6-7.5c2.4-2.2,5.7-7.6,9.4-4.6c2.1,1.6,3.3,8.5,5.7,3.2
		c1.2-2.6,0.7-5.5,1.7-8.1c2.6-6.4,8.4,1.4,11.9-3.6c2.3-3.2,0.9-3.4-1.7-5.3c-2.6-2-3.9-5.1-4.8-8.1c-0.2-0.9-1.4-2.6-0.7-3.6
		c0.6-1,2.2-0.6,3-1.4c4.9-5.3-5-9.8-5.8-14.2c-0.4-2.6,2.6-5.9,4.1-7.7c2-2.5,3.3-4.3,4.4-7.4c1-2.6,3.8-5.4,3.9-8.3
		c0.1-3.2-2.9-7-3.9-10.1c-0.8-2.5,0.2-7.1-1.2-9.2c-1.3-2-5.9-3.2-7.7-4.6c-2.2-1.8-4.1-4.1-4.9-6.9c-1.2-3.9,0.1-4,3-6.3
		c3.8-2.9,0.9-4-1.4-7.1c-2.1-2.9-3.3-6.7-4.6-10c-1.1-2.6-2.7-5.2-1.9-8.2c0.8-3.2,4.6-5.4,7-7.4c2.2-1.8,3.7-4.3,5.8-6.1
		c3.1-2.6,3.5,0.1,6.9,0.6c4.1,0.7,6.7-3.6,8.6-6.5c2.5-3.8,4.5-6.3,8.1-9.2c2.3-1.9,1.9-3.3,1.9-6.2c0.1-6.8,7.3-1.4,10.8-5.5
		c4.7-5.5,8.6-13.3,15-17.1c5.1-3,12.6-0.3,17.1,2.5c6.5,4,12.9,4.8,20.7,5.5c3,0.3,5.8,0.9,8.2-1.3c1.4-1.3,2.3-3.2,3.8-4.5
		c1.5-1.4,3.4-2.2,4.9-3.6c3.2-3.1,5.8-7,7.7-10.9c1.3-2.6,3.1-5.2,4.1-7.9c1.2-3.3-0.2-4.4-1.4-7.5c-2.6-6.8,1.4-14.3,4.7-19.9
		c3.5-5.9,2-12.9,6.3-18.5c4.2-5.4,13.8-0.8,19.8-3.2c5.8-2.4,11.7-7.4,13.5-13.5c1.2-4,0.1-14.6,5.5-15.7c4.9-1,12,6.5,16,8.8
		c2.8,1.6,6.5,1.6,9.3-0.1c2.9-1.7,3.5-4.4,0.3-6.3c-2.9-1.7-6.8-1.1-9.8-2.5c-2.7-1.3-4.9-3.3-7.1-5.1c-4.8-4-12.1-4.4-18.3-4.6
		c-3.3-0.1-6.4,0.2-9.6-0.6c-2.3-0.6-6.5-1-8.2-2.7c-4.5-4.4,1-11.8,2-16.2c0.6-2.8,1-6,0.5-8.9c-1-5.1-3.5-9.3-2.8-14.7
		c0.7-5.1,3.9-9,8-12c7.1-5,10.9-11.1,13.5-19.2c2.3-7.3,3.8-14.9,5.7-22.3c0.7-2.6,2-4.8,2.8-7.3c1.7-5.5-0.6-11.6-3-16.4
		c-1-1.9-2.8-4.3-3.4-6.4c-0.9-3.4,0.9-6.4,2.9-8.9c2.4-3.1,4.7-6.7,5.6-10.7c0.9-3.6,3.5-7.5,3.3-11.2c-0.2-3.9-4.5-5.8-7.4-8
		c-2.9-2.2-4.7-5.4-8-6.9c-2.5-1.1-6-1.4-7.7-3.9c-1.1-1.6-1.8-5.2-2.5-7.1c-0.3-0.8-0.9-2.5-0.8-3.3c0.3-1.9,1.2-1.2,2.2-2.5
		c2.4-3-0.1-5.6-0.8-9c-1.2-5.7-0.5-11.9,0.6-17.5c0.6-3,0.8-5.8,1-8.8c0.4-4.5,1.2-9.7,2.5-14c2.6-9.1,11.4-15,16.9-21.8
		c3.3-4.2,1.9-7.3,3.2-12c0.9-3.5,3.3-4.8,6.3-6.6c3.9-2.3,9.2-9.5,13.8-6.5c1.7,1.1,3.5,5.4,6.3,3.5c4.3-2.9-1.6-6.3-1.7-8.3
		c-0.1-2.9,5.9-4.6,8.1-4.7c4-0.2,3.2,4.4,6.1,3.8c0.1-2-0.5-4.9,0.4-6.8c1.3-2.7,4.3-2.1,6.8-2.2c4.3-0.2,3.5-2.3,6.6-4.4
		c3.1-2.1,4.9,1.9,5.3,4.7c0.3,2.1-2.6,6.7-1.1,8.3c2.5,2.5,6.4-3.2,7.5-4.7c0.9-1.2,1.9-2.3,2.7-3.6c0.6-0.9,1.2-3,1.9-3.6
		c3.3-2.7,7.7,3.6,9.8,5.5c2.2,2,5.4,4,5.5,7.1c0.1,1.9-2.1,7.1,1.9,5.5c1.9-0.7,3-4.6,5.7-2.2c2,1.8,0.2,5.2,4.1,4.9
		c0.1-1.7,0-3.5,0.1-5.1c1.8-1.1,4.7,0.4,6.3-0.6c1.2-0.7,0.8-5.4,3.5-3.3c2,1.6,0.7,4.6,3.1,5.9c2.4,1.4,5.3-0.2,7.7,1.8
		c2,1.8,2.1,4.2,1.6,6.7c-0.4,2-1.6,5.8,2.4,4.3c3.6-1.3,0.8-5.6,4.7-6.3c2.4-0.4,5.9,0.2,8.2,0.6c3.1,0.4,4.7,1.2,6.6,4.1
		c1.2,1.9,2.4,5.3,4.7,6.4c2.2,1.1,4.4,0.4,5.2-1.5c0.6-1.3-0.3-3.2,1-4.4c3.3-2.8,6,1,6.8,3.6c0.7,2.2,0.9,6.1,4.3,5.4
		c4.1-0.8,0.6-7,2.6-8.7c1.7-1.4,7.1,0.5,8.7,1.1c2.3,0.8,4.5,3.4,6.5,2.2c2.1-1.2,1.4-4.2,2.2-6.1c1-2.4,3.6-4.1,6.2-4.4
		c5.2-0.8,1.7,3.9,4.5,4.1c0.3,0,0.7,0.1,1.1,0c-0.2-2.7,0.6-4,3.1-4.6c3.8-1.1,6.2-0.4,8.5-4.4c1.1-1.9,0.6-2.2,2.8-3.3
		c3.7-1.8,9.2-1.4,13.2-1.4c3.9,0.1,8.8,1.4,12,3.9c2.7,2.1,2.6,5.1,5.8,6.6c2.6,1.2,7.4,2.4,10.2,1c1-0.5,1.6-1.7,2.5-2.1
		c1.6-0.8,3.7-0.2,5.3-0.6c4.7-1,7.5-4.1,10.3-7.6c4.1-5.1,9.4-7.8,15.4-9.2c3.1-0.8,6-1.1,9-2.1c3.3-1,5.8-2.8,8.8-4.2
		c6.8-3.2,14.3-3,21.8-3c5.1,0,9.2,0.7,13.7,3.1c3.8,2,9,2,13.4,1.1c4.4-1,9-3.1,12.9-5.1c3.7-1.9,6.9-4.4,10.6-6.1
		c3.2-1.5,6.6-2.6,9.7-4.5c2-1.2,6-5,8.5-4.6c2.1,0.3,4.1,4.2,5.8,5.3c6.1,4,7.4-3.2,12.4-4.7c2.7-0.9,3.9-1.1,5.8,0.8
		c1.8,1.8,2.8,3.9,5.1,4.8c2.2,0.8,5.3-0.1,6.6,2.4c1,1.9-0.9,6,0.5,7.5c1.2,1.3,5.6,0.3,7.2,0.8c2.9,0.8,5.6,3,7.1,5.4
		c4.2,6.8,2.6,15.4,3.7,23.1c0.9,6.2,0.3,12.9,0.3,19.2c0,6.4,0.5,12.6,0.5,19c0,4.9,0.1,9.7-0.6,14.4c-0.4,3.2-0.8,7.5,0.3,10.6
		c2.6,7.2,8.7,12.9,13.3,18.7c1.5,1.9,3.3,4.7,2.7,7.2c-0.7,2.9-3.2,2.3-4.6,4.4c-2.5,3.7,2.8,3,5,3.6c2.2,0.5,6.7,2.4,6.5,5.3
		c-0.2,3.1-5.1,2.1-5,5.3c0.1,3.2,5.5,4.6,7.3,6.9c3.4,4.4,3.7,11.5,6.3,16.4c2.8,5.3,6.6,8.5,10.5,12.9
		C710.5,195.4,714.7,201.1,719.2,204.7z"/>
</g>
<sodipodi:namedview  bordercolor="#666666" borderopacity="1" gridtolerance="10" guidetolerance="10" id="namedview138" inkscape:current-layer="katman_1" inkscape:cx="250" inkscape:cy="247.2" inkscape:pageopacity="0" inkscape:pageshadow="2" inkscape:window-height="1000" inkscape:window-maximized="1" inkscape:window-width="1680" inkscape:window-x="-8" inkscape:window-y="-8" inkscape:zoom="1.5230583" objecttolerance="10" pagecolor="#ffffff" showgrid="false">
	</sodipodi:namedview>
</svg>
